<svg xmlns="http://www.w3.org/2000/svg" xmlns:xlink="http://www.w3.org/1999/xlink" width="40" zoomAndPan="magnify" viewBox="0 0 30 30.000001" height="40" preserveAspectRatio="xMidYMid meet" version="1.2"><defs><clipPath id="1e6884c87b"><path d="M 0.484375 0 L 29.515625 0 L 29.515625 29.03125 L 0.484375 29.03125 Z M 0.484375 0 "/></clipPath><clipPath id="0b90c47009"><path d="M 15 0 C 6.984375 0 0.484375 6.5 0.484375 14.515625 C 0.484375 22.53125 6.984375 29.03125 15 29.03125 C 23.015625 29.03125 29.515625 22.53125 29.515625 14.515625 C 29.515625 6.5 23.015625 0 15 0 Z M 15 0 "/></clipPath><clipPath id="a31cc858fc"><path d="M 0.484375 0 L 29.515625 0 L 29.515625 29.03125 L 0.484375 29.03125 Z M 0.484375 0 "/></clipPath><clipPath id="ed6aa900cd"><path d="M 15 0 C 6.984375 0 0.484375 6.5 0.484375 14.515625 C 0.484375 22.53125 6.984375 29.03125 15 29.03125 C 23.015625 29.03125 29.515625 22.53125 29.515625 14.515625 C 29.515625 6.5 23.015625 0 15 0 Z M 15 0 "/></clipPath><clipPath id="bcaeeafa51"><rect x="0" width="30" y="0" height="30"/></clipPath><clipPath id="34b8e9629f"><rect x="0" width="27" y="0" height="24"/></clipPath></defs><g id="c59a32aaa3"><g clip-rule="nonzero" clip-path="url(#1e6884c87b)"><g clip-rule="nonzero" clip-path="url(#0b90c47009)"><g transform="matrix(1,0,0,1,0,0.000000000000005692)"><g clip-path="url(#bcaeeafa51)"><g clip-rule="nonzero" clip-path="url(#a31cc858fc)"><g clip-rule="nonzero" clip-path="url(#ed6aa900cd)"><path style=" stroke:none;fill-rule:nonzero;fill:#000000;fill-opacity:1;" d="M 0.484375 0 L 29.515625 0 L 29.515625 29.03125 L 0.484375 29.03125 Z M 0.484375 0 "/></g></g></g></g></g></g><g transform="matrix(1,0,0,1,2,3)"><g clip-path="url(#34b8e9629f)"><g style="fill:#ffffff;fill-opacity:1;"><g transform="translate(0.509231, 16.252286)"><path style="stroke:none" d="M 6.859375 0.140625 C 6.003906 0.140625 5.203125 -0.0234375 4.453125 -0.359375 C 3.710938 -0.691406 3.0625 -1.144531 2.5 -1.71875 C 1.9375 -2.300781 1.492188 -2.96875 1.171875 -3.71875 C 0.859375 -4.46875 0.703125 -5.257812 0.703125 -6.09375 C 0.703125 -6.945312 0.859375 -7.75 1.171875 -8.5 C 1.492188 -9.257812 1.9375 -9.925781 2.5 -10.5 C 3.070312 -11.070312 3.726562 -11.515625 4.46875 -11.828125 C 5.21875 -12.148438 6.015625 -12.3125 6.859375 -12.3125 C 7.703125 -12.3125 8.492188 -12.148438 9.234375 -11.828125 C 9.984375 -11.515625 10.640625 -11.070312 11.203125 -10.5 C 11.773438 -9.925781 12.21875 -9.257812 12.53125 -8.5 C 12.851562 -7.75 13.015625 -6.945312 13.015625 -6.09375 C 13.015625 -5.238281 12.851562 -4.4375 12.53125 -3.6875 C 12.21875 -2.9375 11.78125 -2.273438 11.21875 -1.703125 C 10.65625 -1.128906 10 -0.675781 9.25 -0.34375 C 8.507812 -0.0195312 7.710938 0.140625 6.859375 0.140625 Z M 6.859375 -0.03125 C 7.035156 -0.03125 7.257812 -0.0625 7.53125 -0.125 C 7.800781 -0.195312 8.085938 -0.34375 8.390625 -0.5625 C 8.703125 -0.789062 8.988281 -1.125 9.25 -1.5625 C 9.507812 -2 9.722656 -2.582031 9.890625 -3.3125 C 10.066406 -4.050781 10.15625 -4.976562 10.15625 -6.09375 C 10.15625 -7.1875 10.066406 -8.097656 9.890625 -8.828125 C 9.722656 -9.554688 9.507812 -10.144531 9.25 -10.59375 C 8.988281 -11.039062 8.703125 -11.375 8.390625 -11.59375 C 8.085938 -11.8125 7.800781 -11.957031 7.53125 -12.03125 C 7.257812 -12.113281 7.035156 -12.15625 6.859375 -12.15625 C 6.679688 -12.15625 6.457031 -12.113281 6.1875 -12.03125 C 5.914062 -11.957031 5.628906 -11.8125 5.328125 -11.59375 C 5.023438 -11.375 4.738281 -11.039062 4.46875 -10.59375 C 4.207031 -10.144531 3.992188 -9.554688 3.828125 -8.828125 C 3.660156 -8.097656 3.578125 -7.1875 3.578125 -6.09375 C 3.578125 -4.976562 3.660156 -4.050781 3.828125 -3.3125 C 3.992188 -2.582031 4.207031 -2 4.46875 -1.5625 C 4.738281 -1.125 5.023438 -0.789062 5.328125 -0.5625 C 5.628906 -0.34375 5.914062 -0.195312 6.1875 -0.125 C 6.457031 -0.0625 6.679688 -0.03125 6.859375 -0.03125 Z M 6.859375 -0.03125 "/></g></g><g style="fill:#ffffff;fill-opacity:1;"><g transform="translate(14.22671, 16.252286)"><path style="stroke:none" d="M 0.71875 0 L 0.71875 -4.015625 L 0.84375 -4.015625 L 0.84375 -3.703125 C 0.84375 -3.242188 0.953125 -2.796875 1.171875 -2.359375 C 1.398438 -1.929688 1.707031 -1.539062 2.09375 -1.1875 C 2.476562 -0.84375 2.910156 -0.566406 3.390625 -0.359375 C 3.878906 -0.160156 4.378906 -0.0625 4.890625 -0.0625 C 5.578125 -0.0625 6.125 -0.148438 6.53125 -0.328125 C 6.9375 -0.503906 7.234375 -0.738281 7.421875 -1.03125 C 7.617188 -1.332031 7.722656 -1.660156 7.734375 -2.015625 C 7.742188 -2.328125 7.648438 -2.617188 7.453125 -2.890625 C 7.253906 -3.160156 6.988281 -3.410156 6.65625 -3.640625 C 6.320312 -3.878906 5.957031 -4.109375 5.5625 -4.328125 C 5.164062 -4.554688 4.769531 -4.78125 4.375 -5 C 3.988281 -5.21875 3.640625 -5.441406 3.328125 -5.671875 C 2.628906 -6.191406 2.085938 -6.664062 1.703125 -7.09375 C 1.316406 -7.53125 1.085938 -7.960938 1.015625 -8.390625 C 0.941406 -8.828125 1.023438 -9.3125 1.265625 -9.84375 C 1.484375 -10.332031 1.796875 -10.753906 2.203125 -11.109375 C 2.609375 -11.460938 3.070312 -11.734375 3.59375 -11.921875 C 4.125 -12.117188 4.671875 -12.21875 5.234375 -12.21875 C 5.484375 -12.21875 5.726562 -12.195312 5.96875 -12.15625 C 6.21875 -12.113281 6.453125 -12.039062 6.671875 -11.9375 C 6.785156 -11.882812 6.929688 -11.816406 7.109375 -11.734375 C 7.285156 -11.660156 7.460938 -11.601562 7.640625 -11.5625 C 7.828125 -11.519531 7.984375 -11.507812 8.109375 -11.53125 C 8.234375 -11.5625 8.300781 -11.640625 8.3125 -11.765625 L 8.3125 -11.828125 L 8.4375 -11.828125 L 8.4375 -8.5 L 8.3125 -8.5 C 8.3125 -8.5 8.300781 -8.578125 8.28125 -8.734375 C 8.269531 -8.898438 8.242188 -9.109375 8.203125 -9.359375 C 8.160156 -9.617188 8.085938 -9.890625 7.984375 -10.171875 C 7.890625 -10.460938 7.757812 -10.738281 7.59375 -11 C 7.4375 -11.269531 7.226562 -11.484375 6.96875 -11.640625 C 6.726562 -11.785156 6.457031 -11.894531 6.15625 -11.96875 C 5.863281 -12.050781 5.554688 -12.09375 5.234375 -12.09375 C 4.691406 -12.09375 4.257812 -12.007812 3.9375 -11.84375 C 3.613281 -11.675781 3.382812 -11.453125 3.25 -11.171875 C 3.125 -10.890625 3.0625 -10.570312 3.0625 -10.21875 C 3.0625 -9.738281 3.222656 -9.3125 3.546875 -8.9375 C 3.878906 -8.570312 4.382812 -8.1875 5.0625 -7.78125 C 5.644531 -7.414062 6.191406 -7.097656 6.703125 -6.828125 C 7.222656 -6.554688 7.675781 -6.273438 8.0625 -5.984375 C 8.457031 -5.691406 8.769531 -5.34375 9 -4.9375 C 9.226562 -4.539062 9.34375 -4.035156 9.34375 -3.421875 C 9.34375 -3.015625 9.25 -2.582031 9.0625 -2.125 C 8.875 -1.675781 8.640625 -1.3125 8.359375 -1.03125 C 8.066406 -0.726562 7.695312 -0.488281 7.25 -0.3125 C 6.8125 -0.144531 6.335938 -0.0351562 5.828125 0.015625 C 5.316406 0.0664062 4.804688 0.0625 4.296875 0 C 3.785156 -0.0507812 3.304688 -0.164062 2.859375 -0.34375 C 2.378906 -0.53125 2.003906 -0.644531 1.734375 -0.6875 C 1.460938 -0.738281 1.257812 -0.738281 1.125 -0.6875 C 1 -0.632812 0.921875 -0.546875 0.890625 -0.421875 C 0.859375 -0.304688 0.84375 -0.171875 0.84375 -0.015625 L 0.84375 0 Z M 0.71875 0 "/></g></g></g></g></g></svg>